{
    "asset" : {
        "generator" : "Khronos glTF Blender I/O v1.5.17",
        "version" : "2.0"
    },
    "scene" : 0,
    "scenes" : [
        {
            "name" : "Scene",
            "nodes" : [
                0,
                1,
                2,
                3,
                4,
                5,
                6,
                7
            ]
        }
    ],
    "nodes" : [
        {
            "mesh" : 0,
            "name" : "Cube",
            "rotation" : [
                0.7074515223503113,
                -0.706632137298584,
                -0.004021977074444294,
                0.012929229065775871
            ],
            "scale" : [
                1.0000396966934204,
                1.793601155281067,
                3.9736509323120117
            ],
            "translation" : [
                -0.038241803646087646,
                -0.16409683227539062,
                -0.07906642556190491
            ]
        },
        {
            "mesh" : 1,
            "name" : "Cube.001",
            "rotation" : [
                -0.005907260347157717,
                0.008968150243163109,
                -5.298024552757852e-05,
                0.9999423623085022
            ],
            "scale" : [
                1.9266605377197266,
                1.0385708808898926,
                1.9706834554672241
            ],
            "translation" : [
                0.006942272186279297,
                -0.07122039794921875,
                1.895493984222412
            ]
        },
        {
            "mesh" : 2,
            "name" : "Cube.002",
            "scale" : [
                0.4448213577270508,
                0.7674304246902466,
                0.4456578493118286
            ],
            "translation" : [
                1.222869873046875,
                -1.4809865951538086,
                -2.8779475688934326
            ]
        },
        {
            "mesh" : 3,
            "name" : "Cube.003",
            "rotation" : [
                0,
                0.011938193812966347,
                0,
                0.9999288320541382
            ],
            "scale" : [
                0.4448213577270508,
                0.7674304246902466,
                0.4456578493118286
            ],
            "translation" : [
                1.3635153770446777,
                -1.5272831916809082,
                2.6815710067749023
            ]
        },
        {
            "mesh" : 4,
            "name" : "Cube.004",
            "rotation" : [
                0,
                0.002959871431812644,
                0,
                0.9999956488609314
            ],
            "scale" : [
                0.4448213577270508,
                0.7674304246902466,
                0.4456578493118286
            ],
            "translation" : [
                -1.4293484687805176,
                -1.5268172025680542,
                -2.7900002002716064
            ]
        },
        {
            "mesh" : 5,
            "name" : "Cube.005",
            "rotation" : [
                0,
                0.018452772870659828,
                0,
                0.9998298287391663
            ],
            "scale" : [
                0.4448213577270508,
                0.7674304246902466,
                0.4456578493118286
            ],
            "translation" : [
                -1.2915308475494385,
                -1.570265769958496,
                2.7043275833129883
            ]
        },
        {
            "mesh" : 6,
            "name" : "Cube.006",
            "translation" : [
                -4.850804328918457,
                8.925741195678711,
                -13.416791915893555
            ]
        },
        {
            "mesh" : 7,
            "name" : "Cube.007",
            "rotation" : [
                0.04136969894170761,
                0.011470113880932331,
                0.0004749532090499997,
                0.9990779757499695
            ],
            "scale" : [
                1,
                1,
                0.4885035753250122
            ],
            "translation" : [
                -0.06935246288776398,
                -0.020407438278198242,
                -3.089298963546753
            ]
        }
    ],
    "materials" : [
        {
            "doubleSided" : true,
            "name" : "Material",
            "pbrMetallicRoughness" : {
                "baseColorFactor" : [
                    0.800000011920929,
                    0.800000011920929,
                    0.800000011920929,
                    1
                ],
                "metallicFactor" : 0,
                "roughnessFactor" : 0.4000000059604645
            }
        }
    ],
    "meshes" : [
        {
            "name" : "Cube",
            "primitives" : [
                {
                    "attributes" : {
                        "POSITION" : 0,
                        "NORMAL" : 1,
                        "TEXCOORD_0" : 2
                    },
                    "indices" : 3,
                    "material" : 0
                }
            ]
        },
        {
            "name" : "Cube.001",
            "primitives" : [
                {
                    "attributes" : {
                        "POSITION" : 4,
                        "NORMAL" : 5,
                        "TEXCOORD_0" : 6
                    },
                    "indices" : 7
                }
            ]
        },
        {
            "name" : "Cube.002",
            "primitives" : [
                {
                    "attributes" : {
                        "POSITION" : 8,
                        "NORMAL" : 9,
                        "TEXCOORD_0" : 10
                    },
                    "indices" : 7
                }
            ]
        },
        {
            "name" : "Cube.003",
            "primitives" : [
                {
                    "attributes" : {
                        "POSITION" : 11,
                        "NORMAL" : 12,
                        "TEXCOORD_0" : 13
                    },
                    "indices" : 7
                }
            ]
        },
        {
            "name" : "Cube.004",
            "primitives" : [
                {
                    "attributes" : {
                        "POSITION" : 14,
                        "NORMAL" : 15,
                        "TEXCOORD_0" : 16
                    },
                    "indices" : 7
                }
            ]
        },
        {
            "name" : "Cube.005",
            "primitives" : [
                {
                    "attributes" : {
                        "POSITION" : 17,
                        "NORMAL" : 18,
                        "TEXCOORD_0" : 19
                    },
                    "indices" : 7
                }
            ]
        },
        {
            "name" : "Cube.006",
            "primitives" : [
                {
                    "attributes" : {
                        "POSITION" : 20,
                        "NORMAL" : 21,
                        "TEXCOORD_0" : 22
                    },
                    "indices" : 23
                }
            ]
        },
        {
            "name" : "Cube.008",
            "primitives" : [
                {
                    "attributes" : {
                        "POSITION" : 24,
                        "NORMAL" : 25,
                        "TEXCOORD_0" : 26
                    },
                    "indices" : 27
                }
            ]
        }
    ],
    "accessors" : [
        {
            "bufferView" : 0,
            "componentType" : 5126,
            "count" : 80,
            "max" : [
                1,
                1,
                1
            ],
            "min" : [
                -1,
                -1,
                -1
            ],
            "type" : "VEC3"
        },
        {
            "bufferView" : 1,
            "componentType" : 5126,
            "count" : 80,
            "type" : "VEC3"
        },
        {
            "bufferView" : 2,
            "componentType" : 5126,
            "count" : 80,
            "type" : "VEC2"
        },
        {
            "bufferView" : 3,
            "componentType" : 5123,
            "count" : 132,
            "type" : "SCALAR"
        },
        {
            "bufferView" : 4,
            "componentType" : 5126,
            "count" : 24,
            "max" : [
                1,
                1,
                1
            ],
            "min" : [
                -1,
                -1,
                -1
            ],
            "type" : "VEC3"
        },
        {
            "bufferView" : 5,
            "componentType" : 5126,
            "count" : 24,
            "type" : "VEC3"
        },
        {
            "bufferView" : 6,
            "componentType" : 5126,
            "count" : 24,
            "type" : "VEC2"
        },
        {
            "bufferView" : 7,
            "componentType" : 5123,
            "count" : 36,
            "type" : "SCALAR"
        },
        {
            "bufferView" : 8,
            "componentType" : 5126,
            "count" : 24,
            "max" : [
                1,
                1,
                1
            ],
            "min" : [
                -1,
                -1,
                -1
            ],
            "type" : "VEC3"
        },
        {
            "bufferView" : 9,
            "componentType" : 5126,
            "count" : 24,
            "type" : "VEC3"
        },
        {
            "bufferView" : 10,
            "componentType" : 5126,
            "count" : 24,
            "type" : "VEC2"
        },
        {
            "bufferView" : 11,
            "componentType" : 5126,
            "count" : 24,
            "max" : [
                1,
                1,
                1
            ],
            "min" : [
                -1,
                -1,
                -1
            ],
            "type" : "VEC3"
        },
        {
            "bufferView" : 12,
            "componentType" : 5126,
            "count" : 24,
            "type" : "VEC3"
        },
        {
            "bufferView" : 13,
            "componentType" : 5126,
            "count" : 24,
            "type" : "VEC2"
        },
        {
            "bufferView" : 14,
            "componentType" : 5126,
            "count" : 24,
            "max" : [
                1,
                1,
                1
            ],
            "min" : [
                -1,
                -1,
                -1
            ],
            "type" : "VEC3"
        },
        {
            "bufferView" : 15,
            "componentType" : 5126,
            "count" : 24,
            "type" : "VEC3"
        },
        {
            "bufferView" : 16,
            "componentType" : 5126,
            "count" : 24,
            "type" : "VEC2"
        },
        {
            "bufferView" : 17,
            "componentType" : 5126,
            "count" : 24,
            "max" : [
                1,
                1,
                1
            ],
            "min" : [
                -1,
                -1,
                -1
            ],
            "type" : "VEC3"
        },
        {
            "bufferView" : 18,
            "componentType" : 5126,
            "count" : 24,
            "type" : "VEC3"
        },
        {
            "bufferView" : 19,
            "componentType" : 5126,
            "count" : 24,
            "type" : "VEC2"
        },
        {
            "bufferView" : 20,
            "componentType" : 5126,
            "count" : 24,
            "max" : [
                -0.3291794955730438,
                0.6146450042724609,
                -0.9456384778022766
            ],
            "min" : [
                -0.3291977345943451,
                0.6146336197853088,
                -0.9456447958946228
            ],
            "type" : "VEC3"
        },
        {
            "bufferView" : 21,
            "componentType" : 5126,
            "count" : 24,
            "type" : "VEC3"
        },
        {
            "bufferView" : 22,
            "componentType" : 5126,
            "count" : 24,
            "type" : "VEC2"
        },
        {
            "bufferView" : 23,
            "componentType" : 5123,
            "count" : 36,
            "type" : "SCALAR"
        },
        {
            "bufferView" : 24,
            "componentType" : 5126,
            "count" : 178,
            "max" : [
                1.0632951259613037,
                1.0683447122573853,
                1.1248674392700195
            ],
            "min" : [
                -1.0634925365447998,
                -1,
                -1.0389595031738281
            ],
            "type" : "VEC3"
        },
        {
            "bufferView" : 25,
            "componentType" : 5126,
            "count" : 178,
            "type" : "VEC3"
        },
        {
            "bufferView" : 26,
            "componentType" : 5126,
            "count" : 178,
            "type" : "VEC2"
        },
        {
            "bufferView" : 27,
            "componentType" : 5123,
            "count" : 312,
            "type" : "SCALAR"
        }
    ],
    "bufferViews" : [
        {
            "buffer" : 0,
            "byteLength" : 960,
            "byteOffset" : 0
        },
        {
            "buffer" : 0,
            "byteLength" : 960,
            "byteOffset" : 960
        },
        {
            "buffer" : 0,
            "byteLength" : 640,
            "byteOffset" : 1920
        },
        {
            "buffer" : 0,
            "byteLength" : 264,
            "byteOffset" : 2560
        },
        {
            "buffer" : 0,
            "byteLength" : 288,
            "byteOffset" : 2824
        },
        {
            "buffer" : 0,
            "byteLength" : 288,
            "byteOffset" : 3112
        },
        {
            "buffer" : 0,
            "byteLength" : 192,
            "byteOffset" : 3400
        },
        {
            "buffer" : 0,
            "byteLength" : 72,
            "byteOffset" : 3592
        },
        {
            "buffer" : 0,
            "byteLength" : 288,
            "byteOffset" : 3664
        },
        {
            "buffer" : 0,
            "byteLength" : 288,
            "byteOffset" : 3952
        },
        {
            "buffer" : 0,
            "byteLength" : 192,
            "byteOffset" : 4240
        },
        {
            "buffer" : 0,
            "byteLength" : 288,
            "byteOffset" : 4432
        },
        {
            "buffer" : 0,
            "byteLength" : 288,
            "byteOffset" : 4720
        },
        {
            "buffer" : 0,
            "byteLength" : 192,
            "byteOffset" : 5008
        },
        {
            "buffer" : 0,
            "byteLength" : 288,
            "byteOffset" : 5200
        },
        {
            "buffer" : 0,
            "byteLength" : 288,
            "byteOffset" : 5488
        },
        {
            "buffer" : 0,
            "byteLength" : 192,
            "byteOffset" : 5776
        },
        {
            "buffer" : 0,
            "byteLength" : 288,
            "byteOffset" : 5968
        },
        {
            "buffer" : 0,
            "byteLength" : 288,
            "byteOffset" : 6256
        },
        {
            "buffer" : 0,
            "byteLength" : 192,
            "byteOffset" : 6544
        },
        {
            "buffer" : 0,
            "byteLength" : 288,
            "byteOffset" : 6736
        },
        {
            "buffer" : 0,
            "byteLength" : 288,
            "byteOffset" : 7024
        },
        {
            "buffer" : 0,
            "byteLength" : 192,
            "byteOffset" : 7312
        },
        {
            "buffer" : 0,
            "byteLength" : 72,
            "byteOffset" : 7504
        },
        {
            "buffer" : 0,
            "byteLength" : 2136,
            "byteOffset" : 7576
        },
        {
            "buffer" : 0,
            "byteLength" : 2136,
            "byteOffset" : 9712
        },
        {
            "buffer" : 0,
            "byteLength" : 1424,
            "byteOffset" : 11848
        },
        {
            "buffer" : 0,
            "byteLength" : 624,
            "byteOffset" : 13272
        }
    ],
    "buffers" : [
        {
            "byteLength" : 13896,
            "uri" : "data:application/octet-stream;base64,"
        }
    ]
}
